# Blender v3.3.0 OBJ File: ''
# www.blender.org
mtllib diamond.mtl
o diamondwhite_dmesh
v 0.995185 0.873936 -0.098017
v 1.000000 0.894480 0.000000
v 1.000000 0.860480 0.000000
v 0.995185 0.873936 0.098017
v 0.881921 0.873936 -0.471397
v 0.923880 0.894480 -0.382683
v 0.923880 0.860480 -0.382683
v 0.956940 0.873936 -0.290285
v 0.634393 0.873936 -0.773010
v 0.707107 0.894480 -0.707107
v 0.707107 0.860480 -0.707107
v 0.773010 0.873936 -0.634393
v 0.290285 0.873936 -0.956940
v 0.382683 0.894480 -0.923880
v 0.382683 0.860480 -0.923880
v 0.471397 0.873936 -0.881921
v -0.098017 0.873936 -0.995185
v 0.000000 0.894480 -1.000000
v 0.000000 0.860480 -1.000000
v 0.098017 0.873936 -0.995185
v -0.471397 0.873936 -0.881921
v -0.382683 0.894480 -0.923880
v -0.382683 0.860480 -0.923880
v -0.290285 0.873936 -0.956940
v -0.773010 0.873936 -0.634393
v -0.707107 0.894480 -0.707107
v -0.707107 0.860480 -0.707107
v -0.634393 0.873936 -0.773010
v -0.956940 0.873936 -0.290285
v -0.923880 0.894480 -0.382683
v -0.923880 0.860480 -0.382683
v -0.881921 0.873936 -0.471397
v -0.995185 0.873936 0.098017
v -1.000000 0.894480 0.000000
v -1.000000 0.860480 0.000000
v -0.995185 0.873936 -0.098017
v -0.881921 0.873936 0.471397
v -0.923880 0.894480 0.382683
v -0.923880 0.860480 0.382683
v -0.956940 0.873936 0.290285
v -0.634393 0.873936 0.773010
v -0.707107 0.894480 0.707107
v -0.707107 0.860480 0.707107
v -0.773011 0.873936 0.634393
v -0.290285 0.873936 0.956940
v -0.382684 0.894480 0.923880
v -0.382684 0.860480 0.923880
v -0.471397 0.873936 0.881921
v 0.098017 0.873936 0.995185
v 0.000000 0.894480 1.000000
v 0.000000 0.860480 1.000000
v -0.098017 0.873936 0.995185
v 0.471397 0.873936 0.881921
v 0.382684 0.894480 0.923879
v 0.382684 0.860480 0.923879
v 0.290285 0.873936 0.956940
v 0.773011 0.873936 0.634393
v 0.707107 0.894480 0.707107
v 0.707107 0.860480 0.707107
v 0.634393 0.873936 0.773010
v 0.956940 0.873936 0.290285
v 0.923880 0.894480 0.382683
v 0.923880 0.860480 0.382683
v 0.881921 0.873936 0.471397
v 0.980785 0.878350 -0.195090
v 0.995185 0.882497 -0.098017
v 0.956940 0.882497 -0.290285
v 0.980785 0.878567 -0.195090
v 0.831470 0.878350 -0.555570
v 0.881921 0.882497 -0.471397
v 0.773010 0.882497 -0.634393
v 0.831470 0.878567 -0.555570
v 0.555570 0.878350 -0.831470
v 0.634393 0.882497 -0.773010
v 0.471397 0.882497 -0.881921
v 0.555570 0.878567 -0.831470
v 0.195090 0.878350 -0.980785
v 0.290285 0.882497 -0.956940
v 0.098017 0.882497 -0.995185
v 0.195090 0.878567 -0.980785
v -0.195090 0.878350 -0.980785
v -0.098017 0.882497 -0.995185
v -0.290285 0.882497 -0.956940
v -0.195090 0.878567 -0.980785
v -0.555570 0.878350 -0.831470
v -0.471397 0.882497 -0.881921
v -0.634393 0.882497 -0.773010
v -0.555570 0.878567 -0.831470
v -0.831470 0.878350 -0.555570
v -0.773010 0.882497 -0.634393
v -0.881921 0.882497 -0.471397
v -0.831470 0.878567 -0.555570
v -0.980785 0.878350 -0.195090
v -0.956940 0.882497 -0.290285
v -0.995185 0.882497 -0.098017
v -0.980785 0.878567 -0.195090
v -0.980785 0.878350 0.195090
v -0.995185 0.882497 0.098017
v -0.956940 0.882497 0.290285
v -0.980785 0.878567 0.195090
v -0.831470 0.878350 0.555570
v -0.881921 0.882497 0.471397
v -0.773011 0.882497 0.634393
v -0.831470 0.878567 0.555570
v -0.555570 0.878350 0.831469
v -0.634393 0.882497 0.773010
v -0.471397 0.882497 0.881921
v -0.555570 0.878567 0.831469
v -0.195090 0.878350 0.980785
v -0.290285 0.882497 0.956940
v -0.098017 0.882497 0.995185
v -0.195090 0.878567 0.980785
v 0.195090 0.878350 0.980785
v 0.098017 0.882497 0.995185
v 0.290285 0.882497 0.956940
v 0.195090 0.878567 0.980785
v 0.555570 0.878350 0.831470
v 0.471397 0.882497 0.881921
v 0.634393 0.882497 0.773010
v 0.555570 0.878567 0.831470
v 0.831470 0.878350 0.555570
v 0.773011 0.882497 0.634393
v 0.881921 0.882497 0.471397
v 0.831470 0.878567 0.555570
v 0.980785 0.878350 0.195090
v 0.956940 0.882497 0.290285
v 0.995185 0.882497 0.098017
v 0.980785 0.878567 0.195090
v 0.647500 1.137480 0.268203
v 0.647500 1.137480 -0.268203
v 0.268203 1.137480 -0.647500
v -0.268203 1.137480 -0.647500
v -0.647500 1.137480 -0.268203
v -0.647500 1.137480 0.268203
v -0.268203 1.137480 0.647500
v 0.268203 1.137480 0.647500
v 0.530000 1.218480 0.000000
v 0.374767 1.218480 -0.374767
v 0.000000 1.218480 -0.530000
v -0.374767 1.218480 -0.374767
v -0.530000 1.218480 0.000000
v -0.374767 1.218480 0.374767
v 0.000000 1.218480 0.530000
v 0.374766 1.218480 0.374767
v 0.400000 0.343280 -0.165685
v 0.400000 0.343280 0.165685
v 0.165685 0.343280 -0.400000
v -0.165685 0.343280 -0.400000
v -0.400000 0.343280 -0.165685
v -0.400000 0.343280 0.165685
v -0.165685 0.343280 0.400000
v 0.165686 0.343280 0.400000
v 0.000000 -0.001520 -0.000000
vn 0.9988 -0.0000 -0.0491
vn 0.9988 0.0000 0.0491
vn 0.9040 0.0000 -0.4276
vn 0.9415 0.0000 -0.3369
vn 0.6716 0.0000 -0.7410
vn 0.7410 0.0000 -0.6716
vn 0.3369 0.0000 -0.9415
vn 0.4276 0.0000 -0.9040
vn -0.0491 0.0000 -0.9988
vn 0.0491 0.0000 -0.9988
vn -0.4276 0.0000 -0.9040
vn -0.3369 0.0000 -0.9415
vn -0.7410 0.0000 -0.6716
vn -0.6716 0.0000 -0.7410
vn -0.9415 0.0000 -0.3369
vn -0.9040 0.0000 -0.4276
vn -0.9988 0.0000 0.0491
vn -0.9988 0.0000 -0.0491
vn -0.9040 0.0000 0.4276
vn -0.9415 0.0000 0.3369
vn -0.6716 0.0000 0.7410
vn -0.7410 0.0000 0.6716
vn -0.3369 0.0000 0.9415
vn -0.4276 0.0000 0.9040
vn 0.0491 0.0000 0.9988
vn -0.0491 0.0000 0.9988
vn 0.4276 0.0000 0.9040
vn 0.3369 0.0000 0.9415
vn 0.7410 0.0000 0.6716
vn 0.6716 0.0000 0.7410
vn 0.9415 0.0000 0.3369
vn 0.9040 0.0000 0.4276
vn 0.9892 0.0000 -0.1467
vn 0.9701 0.0000 -0.2429
vn 0.8577 0.0000 -0.5141
vn 0.8033 0.0000 -0.5956
vn 0.5960 -0.0000 -0.8030
vn 0.5957 0.0000 -0.8032
vn 0.5140 0.0004 -0.8578
vn 0.5140 0.0000 -0.8578
vn 0.2430 0.0000 -0.9700
vn 0.1467 0.0000 -0.9892
vn -0.1467 0.0000 -0.9892
vn -0.2430 0.0000 -0.9700
vn -0.5138 -0.0000 -0.8579
vn -0.5141 0.0000 -0.8577
vn -0.5958 0.0002 -0.8031
vn -0.5956 0.0000 -0.8033
vn -0.8032 0.0000 -0.5957
vn -0.8578 0.0000 -0.5141
vn -0.9700 0.0000 -0.2430
vn -0.9892 0.0000 -0.1468
vn -0.9892 0.0000 0.1467
vn -0.9700 0.0000 0.2430
vn -0.8577 0.0000 0.5141
vn -0.8033 0.0000 0.5956
vn -0.5957 0.0000 0.8032
vn -0.5143 0.0000 0.8576
vn -0.2430 0.0000 0.9700
vn -0.1466 0.0000 0.9892
vn 0.1467 0.0000 0.9892
vn 0.2430 0.0000 0.9700
vn 0.5138 -0.0000 0.8579
vn 0.5141 0.0000 0.8577
vn 0.5961 0.0002 0.8029
vn 0.5959 0.0000 0.8030
vn 0.5960 -0.0003 0.8030
vn 0.8032 0.0000 0.5957
vn 0.8578 0.0000 0.5141
vn 0.9700 0.0000 0.2430
vn 0.9892 0.0000 0.1468
vn 0.6256 0.7703 0.1240
vn 0.5302 0.7701 0.3548
vn 0.5308 0.7699 -0.3542
vn 0.6256 0.7701 -0.1249
vn 0.1249 0.7699 -0.6258
vn 0.3541 0.7701 -0.5307
vn -0.3542 0.7699 -0.5308
vn -0.1249 0.7701 -0.6256
vn -0.6258 0.7699 -0.1249
vn -0.5307 0.7701 -0.3541
vn -0.5308 0.7699 0.3542
vn -0.6256 0.7701 0.1249
vn -0.1249 0.7699 0.6258
vn -0.3541 0.7701 0.5307
vn 0.3542 0.7699 0.5308
vn 0.1249 0.7701 0.6256
vn 0.3308 0.9337 -0.1370
vn 0.4013 0.8233 -0.4013
vn 0.1370 0.9337 -0.3308
vn -0.0000 0.8233 -0.5676
vn -0.1370 0.9337 -0.3308
vn -0.4013 0.8233 -0.4013
vn -0.3308 0.9337 -0.1370
vn -0.5676 0.8233 -0.0000
vn -0.3308 0.9337 0.1370
vn -0.4013 0.8233 0.4013
vn -0.1370 0.9337 0.3308
vn -0.0000 0.8233 0.5676
vn 0.1370 0.9337 0.3308
vn 0.4013 0.8233 0.4013
vn 0.3308 0.9337 0.1370
vn 0.5676 0.8233 -0.0000
vn 0.0000 1.0000 0.0000
vn 0.6680 -0.7323 -0.1324
vn 0.6681 -0.7322 0.1324
vn 0.3785 -0.7326 -0.5657
vn 0.3787 -0.7323 -0.5659
vn 0.5660 -0.7322 -0.3788
vn -0.1324 -0.7323 -0.6680
vn 0.1324 -0.7322 -0.6681
vn -0.5659 -0.7323 -0.3787
vn -0.3788 -0.7322 -0.5660
vn -0.6680 -0.7323 0.1324
vn -0.6681 -0.7322 -0.1324
vn -0.3787 -0.7323 0.5659
vn -0.5660 -0.7322 0.3788
vn 0.1324 -0.7323 0.6680
vn -0.1324 -0.7322 0.6681
vn 0.5659 -0.7323 0.3787
vn 0.3788 -0.7322 0.5660
vn 0.6529 -0.7574 -0.0000
vn 0.4617 -0.7574 -0.4617
vn 0.0000 -0.7574 -0.6529
vn -0.4617 -0.7574 -0.4617
vn -0.6529 -0.7574 -0.0000
vn -0.4617 -0.7574 0.4617
vn 0.0000 -0.7574 0.6529
vn 0.4617 -0.7574 0.4617
vn 0.6715 0.0000 -0.7410
vn 0.7409 0.0000 -0.6716
vn -0.7409 0.0000 -0.6716
vn -0.6715 0.0000 -0.7410
vn -0.6715 0.0000 0.7410
vn -0.7409 0.0000 0.6716
vn 0.7409 0.0000 0.6716
vn 0.6715 0.0000 0.7410
vn 0.9892 0.0000 -0.1468
vn 0.9700 0.0000 -0.2430
vn 0.8578 0.0000 -0.5141
vn 0.8032 0.0000 -0.5957
vn 0.5959 0.0000 -0.8030
vn 0.5956 0.0000 -0.8033
vn 0.5137 0.0000 -0.8580
vn 0.5141 0.0000 -0.8577
vn -0.5138 0.0002 -0.8579
vn -0.5140 0.0000 -0.8578
vn -0.5960 0.0000 -0.8030
vn -0.5957 0.0000 -0.8032
vn -0.8033 0.0000 -0.5956
vn -0.8577 0.0000 -0.5141
vn -0.9701 0.0000 -0.2429
vn -0.9892 0.0000 -0.1467
vn -0.9892 0.0000 0.1468
vn -0.8578 0.0000 0.5141
vn -0.8032 0.0000 0.5957
vn -0.5959 0.0000 0.8030
vn -0.5141 0.0000 0.8577
vn -0.1467 0.0000 0.9892
vn 0.1466 0.0000 0.9892
vn 0.5141 0.0002 0.8577
vn 0.5141 -0.0001 0.8578
vn 0.5143 0.0000 0.8576
vn 0.5960 -0.0000 0.8030
vn 0.5957 0.0000 0.8032
vn 0.8033 0.0000 0.5956
vn 0.8577 0.0000 0.5141
vn 0.9892 0.0000 0.1467
vn 0.6258 0.7699 0.1249
vn 0.6257 0.7701 0.1240
vn 0.6256 0.7701 0.1249
vn 0.5308 0.7699 0.3542
vn 0.5300 0.7703 0.3547
vn 0.5307 0.7701 0.3541
vn 0.5302 0.7701 -0.3548
vn 0.5307 0.7701 -0.3541
vn 0.5300 0.7703 -0.3547
vn 0.6257 0.7701 -0.1240
vn 0.6258 0.7699 -0.1249
vn 0.6256 0.7703 -0.1240
vn 0.1240 0.7701 -0.6257
vn 0.1249 0.7701 -0.6256
vn 0.1240 0.7703 -0.6256
vn 0.3548 0.7701 -0.5302
vn 0.3542 0.7699 -0.5308
vn 0.3547 0.7703 -0.5300
vn -0.3548 0.7701 -0.5302
vn -0.3541 0.7701 -0.5307
vn -0.3547 0.7703 -0.5300
vn -0.1240 0.7701 -0.6257
vn -0.1249 0.7699 -0.6258
vn -0.1240 0.7703 -0.6256
vn -0.6257 0.7701 -0.1240
vn -0.6256 0.7701 -0.1249
vn -0.6256 0.7703 -0.1240
vn -0.5302 0.7701 -0.3548
vn -0.5308 0.7699 -0.3542
vn -0.5300 0.7703 -0.3547
vn -0.5302 0.7701 0.3548
vn -0.5307 0.7701 0.3541
vn -0.5300 0.7703 0.3547
vn -0.6257 0.7701 0.1240
vn -0.6258 0.7699 0.1249
vn -0.6256 0.7703 0.1240
vn -0.1240 0.7701 0.6257
vn -0.1249 0.7701 0.6256
vn -0.1240 0.7703 0.6256
vn -0.3548 0.7701 0.5302
vn -0.3542 0.7699 0.5308
vn -0.3547 0.7703 0.5300
vn 0.3548 0.7701 0.5302
vn 0.3541 0.7701 0.5307
vn 0.3538 0.7702 0.5307
vn 0.3548 0.7703 0.5298
vn 0.3547 0.7703 0.5300
vn 0.1240 0.7701 0.6257
vn 0.1249 0.7699 0.6258
vn 0.1240 0.7703 0.6256
vn 0.6679 -0.7322 -0.1333
vn 0.6681 -0.7322 -0.1324
vn 0.6679 -0.7322 0.1333
vn 0.6680 -0.7323 0.1324
vn 0.3780 -0.7322 -0.5666
vn 0.3788 -0.7322 -0.5660
vn 0.3780 -0.7322 -0.5665
vn 0.3776 -0.7323 -0.5668
vn 0.5666 -0.7322 -0.3780
vn 0.5659 -0.7323 -0.3787
vn 0.5665 -0.7322 -0.3780
vn -0.1333 -0.7322 -0.6679
vn -0.1324 -0.7322 -0.6681
vn 0.1333 -0.7322 -0.6679
vn 0.1324 -0.7323 -0.6680
vn -0.5666 -0.7322 -0.3780
vn -0.5660 -0.7322 -0.3788
vn -0.5665 -0.7322 -0.3780
vn -0.3780 -0.7322 -0.5666
vn -0.3787 -0.7323 -0.5659
vn -0.3788 -0.7325 -0.5657
vn -0.3777 -0.7324 -0.5665
vn -0.3780 -0.7322 -0.5665
vn -0.6679 -0.7322 0.1333
vn -0.6681 -0.7322 0.1324
vn -0.6679 -0.7322 -0.1333
vn -0.6680 -0.7323 -0.1324
vn -0.3780 -0.7322 0.5666
vn -0.3788 -0.7322 0.5660
vn -0.3780 -0.7322 0.5665
vn -0.5666 -0.7322 0.3780
vn -0.5659 -0.7323 0.3787
vn -0.5665 -0.7322 0.3780
vn 0.1333 -0.7322 0.6679
vn 0.1324 -0.7322 0.6681
vn -0.1333 -0.7322 0.6679
vn -0.1324 -0.7323 0.6680
vn 0.5666 -0.7322 0.3780
vn 0.5660 -0.7322 0.3788
vn 0.5665 -0.7322 0.3780
vn 0.3780 -0.7322 0.5666
vn 0.3787 -0.7323 0.5659
vn 0.3788 -0.7325 0.5657
vn 0.3777 -0.7324 0.5665
vn 0.3780 -0.7322 0.5665
usemtl Default_OBJ
s off
f 1//1 2//1 3//1
f 2//2 4//2 3//2
f 5//3 6//3 7//3
f 6//4 8//4 7//4
f 9//5 10//5 11//5
f 10//6 12//6 11//6
f 13//7 14//7 15//7
f 14//8 16//8 15//8
f 17//9 18//9 19//9
f 18//10 20//10 19//10
f 21//11 22//11 23//11
f 22//12 24//12 23//12
f 25//13 26//13 27//13
f 26//14 28//14 27//14
f 29//15 30//15 31//15
f 30//16 32//16 31//16
f 33//17 34//17 35//17
f 34//18 36//18 35//18
f 37//19 38//19 39//19
f 38//20 40//20 39//20
f 41//21 42//21 43//21
f 42//22 44//22 43//22
f 45//23 46//23 47//23
f 46//24 48//24 47//24
f 49//25 50//25 51//25
f 50//26 52//26 51//26
f 53//27 54//27 55//27
f 54//28 56//28 55//28
f 57//29 58//29 59//29
f 58//30 60//30 59//30
f 61//31 62//31 63//31
f 62//32 64//32 63//32
f 65//33 66//33 1//33
f 65//34 67//34 68//34
f 69//35 70//35 5//35
f 69//36 71//36 72//36
f 73//37 74//38 9//38
f 73//39 75//40 76//40
f 77//41 78//41 13//41
f 77//42 79//42 80//42
f 81//43 82//43 17//43
f 81//44 83//44 84//44
f 85//45 86//46 21//46
f 85//47 87//48 88//48
f 89//49 90//49 25//49
f 89//50 91//50 92//50
f 93//51 94//51 29//51
f 93//52 95//52 96//52
f 97//53 98//53 33//53
f 97//54 99//54 100//54
f 101//55 102//55 37//55
f 101//56 103//56 104//56
f 105//57 106//57 41//57
f 105//58 107//58 108//58
f 109//59 110//59 45//59
f 109//60 111//60 112//60
f 113//61 114//61 49//61
f 113//62 115//62 116//62
f 117//63 118//64 53//64
f 117//65 119//66 120//67
f 121//68 122//68 57//68
f 121//69 123//69 124//69
f 125//70 126//70 61//70
f 125//71 127//71 128//71
f 128//72 127//72 129//72
f 123//73 62//73 129//73
f 71//74 10//74 130//74
f 68//75 67//75 130//75
f 79//76 18//76 131//76
f 76//77 75//77 131//77
f 87//78 26//78 132//78
f 84//79 83//79 132//79
f 95//80 34//80 133//80
f 92//81 91//81 133//81
f 103//82 42//82 134//82
f 100//83 99//83 134//83
f 111//84 50//84 135//84
f 108//85 107//85 135//85
f 119//86 58//86 136//86
f 116//87 115//87 136//87
f 137//88 130//88 138//88
f 138//89 10//89 131//89
f 138//90 131//90 139//90
f 139//91 18//91 132//91
f 139//92 132//92 140//92
f 140//93 26//93 133//93
f 140//94 133//94 141//94
f 141//95 34//95 134//95
f 141//96 134//96 142//96
f 142//97 42//97 135//97
f 142//98 135//98 143//98
f 143//99 50//99 136//99
f 143//100 136//100 144//100
f 144//101 58//101 129//101
f 144//102 129//102 137//102
f 2//103 137//103 129//103
f 140//104 142//104 144//104
f 65//105 1//105 145//105
f 61//106 63//106 146//106
f 73//107 9//108 147//108
f 5//109 7//109 145//109
f 81//110 17//110 148//110
f 13//111 15//111 147//111
f 89//112 25//112 149//112
f 21//113 23//113 148//113
f 97//114 33//114 150//114
f 29//115 31//115 149//115
f 105//116 41//116 151//116
f 37//117 39//117 150//117
f 113//118 49//118 152//118
f 45//119 47//119 151//119
f 121//120 57//120 146//120
f 53//121 55//121 152//121
f 146//122 145//122 3//122
f 145//123 147//123 11//123
f 147//124 148//124 19//124
f 148//125 149//125 27//125
f 149//126 150//126 35//126
f 150//127 151//127 43//127
f 151//128 152//128 51//128
f 152//129 146//129 59//129
f 1//1 66//1 2//1
f 2//2 127//2 4//2
f 5//3 70//3 6//3
f 6//4 67//4 8//4
f 9//130 74//130 10//130
f 10//131 71//131 12//131
f 13//7 78//7 14//7
f 14//8 75//8 16//8
f 17//9 82//9 18//9
f 18//10 79//10 20//10
f 21//11 86//11 22//11
f 22//12 83//12 24//12
f 25//132 90//132 26//132
f 26//133 87//133 28//133
f 29//15 94//15 30//15
f 30//16 91//16 32//16
f 33//17 98//17 34//17
f 34//18 95//18 36//18
f 37//19 102//19 38//19
f 38//20 99//20 40//20
f 41//134 106//134 42//134
f 42//135 103//135 44//135
f 45//23 110//23 46//23
f 46//24 107//24 48//24
f 49//25 114//25 50//25
f 50//26 111//26 52//26
f 53//27 118//27 54//27
f 54//28 115//28 56//28
f 57//136 122//136 58//136
f 58//137 119//137 60//137
f 61//31 126//31 62//31
f 62//32 123//32 64//32
f 65//138 68//138 66//138
f 65//139 8//139 67//139
f 69//140 72//140 70//140
f 69//141 12//141 71//141
f 73//142 76//143 74//143
f 73//144 16//145 75//145
f 77//41 80//41 78//41
f 77//42 20//42 79//42
f 81//43 84//43 82//43
f 81//44 24//44 83//44
f 85//146 88//147 86//147
f 85//148 28//149 87//149
f 89//150 92//150 90//150
f 89//151 32//151 91//151
f 93//152 96//152 94//152
f 93//153 36//153 95//153
f 97//154 100//154 98//154
f 97//54 40//54 99//54
f 101//155 104//155 102//155
f 101//156 44//156 103//156
f 105//157 108//157 106//157
f 105//158 48//158 107//158
f 109//59 112//59 110//59
f 109//159 52//159 111//159
f 113//160 116//160 114//160
f 113//62 56//62 115//62
f 117//161 120//162 118//163
f 117//164 60//165 119//165
f 121//166 124//166 122//166
f 121//167 64//167 123//167
f 125//70 128//70 126//70
f 125//168 4//168 127//168
f 127//169 2//169 129//169
f 129//170 62//170 126//170
f 126//171 128//171 129//171
f 129//172 58//172 122//172
f 122//173 124//173 129//173
f 124//174 123//174 129//174
f 130//175 6//175 70//175
f 70//176 72//176 130//176
f 72//177 71//177 130//177
f 67//178 6//178 130//178
f 130//179 2//179 66//179
f 66//180 68//180 130//180
f 131//181 14//181 78//181
f 78//182 80//182 131//182
f 80//183 79//183 131//183
f 75//184 14//184 131//184
f 131//185 10//185 74//185
f 74//186 76//186 131//186
f 132//187 22//187 86//187
f 86//188 88//188 132//188
f 88//189 87//189 132//189
f 83//190 22//190 132//190
f 132//191 18//191 82//191
f 82//192 84//192 132//192
f 133//193 30//193 94//193
f 94//194 96//194 133//194
f 96//195 95//195 133//195
f 91//196 30//196 133//196
f 133//197 26//197 90//197
f 90//198 92//198 133//198
f 134//199 38//199 102//199
f 102//200 104//200 134//200
f 104//201 103//201 134//201
f 99//202 38//202 134//202
f 134//203 34//203 98//203
f 98//204 100//204 134//204
f 135//205 46//205 110//205
f 110//206 112//206 135//206
f 112//207 111//207 135//207
f 107//208 46//208 135//208
f 135//209 42//209 106//209
f 106//210 108//210 135//210
f 136//211 54//211 118//211
f 118//212 120//213 136//212
f 120//214 119//215 136//215
f 115//216 54//216 136//216
f 136//217 50//217 114//217
f 114//218 116//218 136//218
f 138//89 130//89 10//89
f 139//91 131//91 18//91
f 140//93 132//93 26//93
f 141//95 133//95 34//95
f 142//97 134//97 42//97
f 143//99 135//99 50//99
f 144//101 136//101 58//101
f 2//103 130//103 137//103
f 144//104 137//104 140//104
f 137//104 138//104 140//104
f 138//104 139//104 140//104
f 140//104 141//104 142//104
f 142//104 143//104 144//104
f 1//219 3//219 145//219
f 145//220 7//220 8//220
f 8//219 65//219 145//219
f 146//221 3//221 4//221
f 4//222 125//222 146//222
f 125//221 61//221 146//221
f 9//223 11//223 147//223
f 147//224 15//224 16//224
f 16//225 73//226 147//225
f 145//227 11//227 12//227
f 12//228 69//228 145//228
f 69//229 5//229 145//229
f 17//230 19//230 148//230
f 148//231 23//231 24//231
f 24//230 81//230 148//230
f 147//232 19//232 20//232
f 20//233 77//233 147//233
f 77//232 13//232 147//232
f 25//234 27//234 149//234
f 149//235 31//235 32//235
f 32//236 89//236 149//236
f 148//237 27//237 28//237
f 28//238 85//239 148//238
f 85//240 21//241 148//241
f 33//242 35//242 150//242
f 150//243 39//243 40//243
f 40//242 97//242 150//242
f 149//244 35//244 36//244
f 36//245 93//245 149//245
f 93//244 29//244 149//244
f 41//246 43//246 151//246
f 151//247 47//247 48//247
f 48//248 105//248 151//248
f 150//249 43//249 44//249
f 44//250 101//250 150//250
f 101//251 37//251 150//251
f 49//252 51//252 152//252
f 152//253 55//253 56//253
f 56//252 113//252 152//252
f 151//254 51//254 52//254
f 52//255 109//255 151//255
f 109//254 45//254 151//254
f 57//256 59//256 146//256
f 146//257 63//257 64//257
f 64//258 121//258 146//258
f 152//259 59//259 60//259
f 60//260 117//261 152//260
f 117//262 53//263 152//263
f 146//122 153//122 145//122
f 145//123 153//123 147//123
f 147//124 153//124 148//124
f 148//125 153//125 149//125
f 149//126 153//126 150//126
f 150//127 153//127 151//127
f 151//128 153//128 152//128
f 152//129 153//129 146//129
