# Blender v3.3.0 OBJ File: 'diamonds1.blend'
# www.blender.org
mtllib diamond.mtl
o diamondwhite_dmesh
v 1.000000 0.860480 0.000000
v 0.923880 0.860480 -0.382683
v 0.707107 0.860480 -0.707107
v 0.382683 0.860480 -0.923880
v -0.000000 0.860480 -1.000000
v -0.382683 0.860480 -0.923880
v -0.707107 0.860480 -0.707107
v -0.923880 0.860480 -0.382683
v -1.000000 0.860480 0.000000
v -0.923880 0.860480 0.382683
v -0.707107 0.860480 0.707107
v -0.382684 0.860480 0.923880
v 0.000000 0.860480 1.000000
v 0.382684 0.860480 0.923879
v 0.707107 0.860480 0.707107
v 0.923880 0.860480 0.382683
v 1.000000 0.894480 0.000000
v 0.923880 0.894480 -0.382683
v 0.707107 0.894480 -0.707107
v 0.382683 0.894480 -0.923880
v -0.000000 0.894480 -1.000000
v -0.382683 0.894480 -0.923880
v -0.707107 0.894480 -0.707107
v -0.923880 0.894480 -0.382683
v -1.000000 0.894480 0.000000
v -0.923880 0.894480 0.382683
v -0.707107 0.894480 0.707107
v -0.382684 0.894480 0.923880
v 0.000000 0.894480 1.000000
v 0.382684 0.894480 0.923879
v 0.707107 0.894480 0.707107
v 0.923880 0.894480 0.382683
v 0.980785 0.878350 -0.195090
v 0.831470 0.878350 -0.555570
v 0.555570 0.878350 -0.831470
v 0.195090 0.878350 -0.980785
v -0.195090 0.878350 -0.980785
v -0.555570 0.878350 -0.831470
v -0.831470 0.878350 -0.555570
v -0.980785 0.878350 -0.195090
v -0.980785 0.878350 0.195090
v -0.831470 0.878350 0.555570
v -0.555570 0.878350 0.831469
v -0.195090 0.878350 0.980785
v 0.195090 0.878350 0.980785
v 0.555570 0.878350 0.831470
v 0.831470 0.878350 0.555570
v 0.980785 0.878350 0.195090
v 0.980785 0.878567 -0.195090
v 0.831470 0.878567 -0.555570
v 0.555570 0.878567 -0.831470
v 0.195090 0.878567 -0.980785
v -0.195090 0.878567 -0.980785
v -0.555570 0.878567 -0.831470
v -0.831470 0.878567 -0.555570
v -0.980785 0.878567 -0.195090
v -0.980785 0.878567 0.195090
v -0.831470 0.878567 0.555570
v -0.555570 0.878567 0.831469
v -0.195090 0.878567 0.980785
v 0.195090 0.878567 0.980785
v 0.555570 0.878567 0.831470
v 0.831470 0.878567 0.555570
v 0.980785 0.878567 0.195090
v 0.995185 0.873936 -0.098017
v 0.956940 0.873936 -0.290285
v 0.881921 0.873936 -0.471397
v 0.773010 0.873936 -0.634393
v 0.634393 0.873936 -0.773010
v 0.471397 0.873936 -0.881921
v 0.290285 0.873936 -0.956940
v 0.098017 0.873936 -0.995185
v -0.098017 0.873936 -0.995185
v -0.290285 0.873936 -0.956940
v -0.471397 0.873936 -0.881921
v -0.634393 0.873936 -0.773010
v -0.773010 0.873936 -0.634393
v -0.881921 0.873936 -0.471397
v -0.956940 0.873936 -0.290285
v -0.995185 0.873936 -0.098017
v -0.995185 0.873936 0.098017
v -0.956940 0.873936 0.290285
v -0.881921 0.873936 0.471397
v -0.773011 0.873936 0.634393
v -0.634393 0.873936 0.773010
v -0.471397 0.873936 0.881921
v -0.290285 0.873936 0.956940
v -0.098017 0.873936 0.995185
v 0.098017 0.873936 0.995185
v 0.290285 0.873936 0.956940
v 0.471397 0.873936 0.881921
v 0.634393 0.873936 0.773010
v 0.773011 0.873936 0.634393
v 0.881921 0.873936 0.471397
v 0.956940 0.873936 0.290285
v 0.995185 0.873936 0.098017
v 0.995185 0.882497 -0.098017
v 0.956940 0.882497 -0.290285
v 0.881921 0.882497 -0.471397
v 0.773010 0.882497 -0.634393
v 0.634393 0.882497 -0.773010
v 0.471397 0.882497 -0.881921
v 0.290285 0.882497 -0.956940
v 0.098017 0.882497 -0.995185
v -0.098017 0.882497 -0.995185
v -0.290285 0.882497 -0.956940
v -0.471397 0.882497 -0.881921
v -0.634393 0.882497 -0.773010
v -0.773010 0.882497 -0.634393
v -0.881921 0.882497 -0.471397
v -0.956940 0.882497 -0.290285
v -0.995185 0.882497 -0.098017
v -0.995185 0.882497 0.098017
v -0.956940 0.882497 0.290285
v -0.881921 0.882497 0.471397
v -0.773011 0.882497 0.634393
v -0.634393 0.882497 0.773010
v -0.471397 0.882497 0.881921
v -0.290285 0.882497 0.956940
v -0.098017 0.882497 0.995185
v 0.098017 0.882497 0.995185
v 0.290285 0.882497 0.956940
v 0.471397 0.882497 0.881921
v 0.634393 0.882497 0.773010
v 0.773011 0.882497 0.634393
v 0.881921 0.882497 0.471397
v 0.956940 0.882497 0.290285
v 0.995185 0.882497 0.098017
v 0.647500 1.137480 -0.268203
v 0.268203 1.137480 -0.647500
v -0.268203 1.137480 -0.647500
v -0.647500 1.137480 -0.268203
v -0.647500 1.137480 0.268203
v -0.268203 1.137480 0.647500
v 0.268203 1.137480 0.647500
v 0.647500 1.137480 0.268203
v 0.530000 1.218480 0.000000
v 0.374767 1.218480 -0.374767
v -0.000000 1.218480 -0.530000
v -0.374767 1.218480 -0.374767
v -0.530000 1.218480 0.000000
v -0.374767 1.218480 0.374767
v 0.000000 1.218480 0.530000
v 0.374766 1.218480 0.374767
v 0.400000 0.343280 -0.165685
v 0.165685 0.343280 -0.400000
v -0.165685 0.343280 -0.400000
v -0.400000 0.343280 -0.165685
v -0.400000 0.343280 0.165685
v -0.165685 0.343280 0.400000
v 0.165686 0.343280 0.400000
v 0.400000 0.343280 0.165685
v 0.000000 -0.001520 0.000000
vn 0.9143 -0.3855 -0.1238
vn 0.8861 0.4635 0.0000
vn 0.9033 -0.4291 0.0000
vn 0.9143 -0.3855 0.1238
vn 0.7974 -0.3856 -0.4643
vn 0.8247 0.4508 -0.3416
vn 0.8352 -0.4274 -0.3460
vn 0.8921 -0.3856 -0.2356
vn 0.8353 -0.4274 -0.3460
vn 0.5590 -0.3855 -0.7341
vn 0.6266 0.4635 -0.6266
vn 0.6387 -0.4291 -0.6387
vn 0.7341 -0.3855 -0.5590
vn 0.2356 -0.3856 -0.8921
vn 0.3416 0.4508 -0.8247
vn 0.3460 -0.4274 -0.8353
vn 0.4643 -0.3856 -0.7974
vn 0.3460 -0.4274 -0.8352
vn -0.1238 -0.3855 -0.9143
vn 0.0000 0.4635 -0.8861
vn 0.0000 -0.4291 -0.9033
vn 0.1238 -0.3855 -0.9143
vn -0.4643 -0.3856 -0.7974
vn -0.3416 0.4508 -0.8247
vn -0.3460 -0.4274 -0.8352
vn -0.2356 -0.3856 -0.8921
vn -0.3460 -0.4274 -0.8353
vn -0.7341 -0.3855 -0.5590
vn -0.6266 0.4635 -0.6266
vn -0.6387 -0.4291 -0.6387
vn -0.5590 -0.3855 -0.7341
vn -0.8921 -0.3856 -0.2356
vn -0.8247 0.4508 -0.3416
vn -0.8353 -0.4274 -0.3460
vn -0.7974 -0.3856 -0.4643
vn -0.8352 -0.4274 -0.3460
vn -0.9143 -0.3855 0.1238
vn -0.8861 0.4635 -0.0000
vn -0.9033 -0.4291 -0.0000
vn -0.9143 -0.3855 -0.1238
vn -0.7974 -0.3856 0.4643
vn -0.8247 0.4508 0.3416
vn -0.8352 -0.4274 0.3460
vn -0.8921 -0.3856 0.2356
vn -0.8353 -0.4274 0.3460
vn -0.5590 -0.3855 0.7341
vn -0.6266 0.4635 0.6266
vn -0.6387 -0.4291 0.6387
vn -0.7341 -0.3855 0.5590
vn -0.2356 -0.3856 0.8921
vn -0.3416 0.4508 0.8247
vn -0.3460 -0.4274 0.8353
vn -0.4643 -0.3856 0.7974
vn -0.3460 -0.4274 0.8352
vn 0.1238 -0.3855 0.9143
vn -0.0000 0.4635 0.8861
vn -0.0000 -0.4291 0.9033
vn -0.1238 -0.3855 0.9143
vn 0.4643 -0.3856 0.7974
vn 0.3416 0.4508 0.8247
vn 0.3460 -0.4274 0.8352
vn 0.2356 -0.3856 0.8921
vn 0.3460 -0.4274 0.8353
vn 0.7341 -0.3855 0.5590
vn 0.6266 0.4635 0.6266
vn 0.6387 -0.4291 0.6387
vn 0.5590 -0.3855 0.7341
vn 0.8921 -0.3856 0.2356
vn 0.8247 0.4508 0.3416
vn 0.8353 -0.4274 0.3460
vn 0.7974 -0.3856 0.4643
vn 0.8352 -0.4274 0.3460
vn 0.9051 -0.3853 -0.1800
vn 0.9032 0.4118 -0.1212
vn 0.8808 0.4118 -0.2338
vn 0.8938 0.4117 -0.1777
vn 0.7673 -0.3853 -0.5127
vn 0.7881 0.4118 -0.4575
vn 0.7974 -0.3855 -0.4643
vn 0.7672 -0.3853 -0.5127
vn 0.7243 0.4119 -0.5530
vn 0.7577 0.4116 -0.5064
vn 0.5127 -0.3853 -0.7673
vn 0.5529 0.4118 -0.7243
vn 0.5130 -0.3853 -0.7671
vn 0.4578 0.4118 -0.7880
vn 0.5066 0.4117 -0.7575
vn 0.1800 -0.3853 -0.9051
vn 0.2337 0.4118 -0.8808
vn 0.2355 -0.3855 -0.8921
vn 0.1801 -0.3853 -0.9050
vn 0.1213 0.4118 -0.9032
vn 0.1778 0.4116 -0.8938
vn -0.1800 -0.3853 -0.9051
vn -0.1212 0.4118 -0.9032
vn -0.1801 -0.3853 -0.9051
vn -0.2339 0.4119 -0.8807
vn -0.1778 0.4116 -0.8938
vn -0.5127 -0.3853 -0.7673
vn -0.4575 0.4118 -0.7881
vn -0.4643 -0.3855 -0.7974
vn -0.5130 -0.3853 -0.7671
vn -0.5532 0.4119 -0.7240
vn -0.5067 0.4116 -0.7575
vn -0.7673 -0.3853 -0.5127
vn -0.7243 0.4118 -0.5529
vn -0.7674 -0.3853 -0.5126
vn -0.7882 0.4119 -0.4573
vn -0.7578 0.4116 -0.5062
vn -0.9051 -0.3853 -0.1800
vn -0.8808 0.4118 -0.2337
vn -0.8921 -0.3855 -0.2355
vn -0.9051 -0.3853 -0.1799
vn -0.9032 0.4119 -0.1211
vn -0.8939 0.4116 -0.1777
vn -0.9051 -0.3853 0.1800
vn -0.9032 0.4118 0.1212
vn -0.8808 0.4118 0.2338
vn -0.8938 0.4117 0.1777
vn -0.7673 -0.3853 0.5127
vn -0.7881 0.4118 0.4575
vn -0.7974 -0.3855 0.4643
vn -0.7674 -0.3853 0.5125
vn -0.7244 0.4118 0.5528
vn -0.7578 0.4117 0.5062
vn -0.5127 -0.3853 0.7673
vn -0.5529 0.4118 0.7243
vn -0.4575 0.4118 0.7881
vn -0.5064 0.4117 0.7577
vn -0.1800 -0.3853 0.9051
vn -0.2337 0.4118 0.8808
vn -0.2355 -0.3855 0.8921
vn -0.1801 -0.3853 0.9050
vn -0.1213 0.4118 0.9032
vn -0.1778 0.4116 0.8938
vn 0.1800 -0.3853 0.9051
vn 0.1212 0.4118 0.9032
vn 0.1801 -0.3853 0.9051
vn 0.2339 0.4119 0.8807
vn 0.1778 0.4116 0.8938
vn 0.5127 -0.3853 0.7673
vn 0.4575 0.4118 0.7881
vn 0.4643 -0.3855 0.7974
vn 0.5130 -0.3853 0.7671
vn 0.5532 0.4119 0.7240
vn 0.5067 0.4116 0.7575
vn 0.7673 -0.3853 0.5127
vn 0.7243 0.4118 0.5529
vn 0.7674 -0.3853 0.5126
vn 0.7882 0.4119 0.4573
vn 0.7578 0.4116 0.5062
vn 0.9051 -0.3853 0.1800
vn 0.8808 0.4118 0.2337
vn 0.8921 -0.3855 0.2355
vn 0.9051 -0.3853 0.1799
vn 0.9032 0.4119 0.1211
vn 0.8939 0.4116 0.1777
vn 0.8938 0.4116 0.1777
vn 0.9032 0.4118 0.1212
vn 0.4842 0.8516 0.2006
vn 0.7881 0.4118 0.4575
vn 0.4842 0.8517 0.2006
vn 0.7243 0.4118 -0.5529
vn 0.6266 0.4634 -0.6266
vn 0.4842 0.8516 -0.2006
vn 0.8939 0.4116 -0.1777
vn 0.1212 0.4118 -0.9032
vn 0.0000 0.4634 -0.8861
vn 0.2006 0.8516 -0.4842
vn 0.5064 0.4116 -0.7577
vn 0.4575 0.4118 -0.7881
vn -0.5529 0.4118 -0.7243
vn -0.6266 0.4634 -0.6266
vn -0.2006 0.8516 -0.4842
vn -0.1777 0.4116 -0.8939
vn -0.2338 0.4118 -0.8808
vn -0.9032 0.4118 -0.1212
vn -0.8861 0.4634 -0.0000
vn -0.4842 0.8516 -0.2006
vn -0.7577 0.4116 -0.5064
vn -0.7881 0.4118 -0.4575
vn -0.7243 0.4118 0.5529
vn -0.6266 0.4634 0.6266
vn -0.4842 0.8516 0.2006
vn -0.8939 0.4116 0.1777
vn -0.1212 0.4118 0.9032
vn -0.0000 0.4634 0.8861
vn -0.2006 0.8516 0.4842
vn -0.5064 0.4116 0.7577
vn 0.5529 0.4118 0.7243
vn 0.6266 0.4634 0.6266
vn 0.2006 0.8516 0.4842
vn 0.1777 0.4116 0.8939
vn 0.2338 0.4118 0.8808
vn 0.2984 0.9545 -0.0000
vn 0.2110 0.9545 -0.2110
vn 0.6266 0.4635 -0.6265
vn 0.0000 0.9545 -0.2984
vn -0.2110 0.9545 -0.2110
vn -0.6265 0.4635 -0.6266
vn -0.2984 0.9545 -0.0000
vn -0.2110 0.9545 0.2110
vn -0.6266 0.4635 0.6265
vn -0.0000 0.9545 0.2984
vn 0.2110 0.9545 0.2110
vn 0.6265 0.4635 0.6266
vn 0.8861 0.4635 0.0001
vn 0.5834 -0.7754 -0.2416
vn 0.5833 -0.7754 0.2417
vn 0.2417 -0.7754 -0.5834
vn -0.2416 -0.7754 -0.5834
vn 0.2417 -0.7754 -0.5833
vn -0.5834 -0.7754 -0.2417
vn -0.5834 -0.7754 0.2416
vn -0.5833 -0.7754 -0.2417
vn -0.2417 -0.7754 0.5834
vn 0.2416 -0.7754 0.5834
vn -0.2417 -0.7754 0.5833
vn 0.5834 -0.7754 0.2417
vn 0.5834 -0.7754 -0.2417
vn 0.2416 -0.7754 -0.5834
vn -0.2417 -0.7754 -0.5834
vn -0.5834 -0.7754 -0.2416
vn -0.5834 -0.7754 0.2417
vn -0.2416 -0.7754 0.5834
vn 0.2417 -0.7754 0.5834
vn 0.5834 -0.7754 0.2416
vn 0.7974 -0.3856 -0.4642
vn 0.7881 0.4119 -0.4575
vn 0.8808 0.4119 -0.2338
vn 0.2338 0.4119 -0.8808
vn 0.4575 0.4119 -0.7881
vn 0.4642 -0.3856 -0.7974
vn -0.4642 -0.3856 -0.7974
vn -0.4575 0.4119 -0.7881
vn -0.2338 0.4119 -0.8808
vn -0.8808 0.4119 -0.2338
vn -0.7881 0.4119 -0.4575
vn -0.7974 -0.3856 -0.4642
vn -0.7974 -0.3856 0.4642
vn -0.7881 0.4119 0.4575
vn -0.8808 0.4119 0.2338
vn -0.2338 0.4119 0.8808
vn -0.4575 0.4119 0.7881
vn -0.4642 -0.3856 0.7974
vn 0.4642 -0.3856 0.7974
vn 0.4575 0.4119 0.7881
vn 0.2338 0.4119 0.8808
vn 0.8808 0.4119 0.2338
vn 0.7881 0.4119 0.4575
vn 0.7974 -0.3856 0.4642
vn 0.8938 0.4116 -0.1778
vn 0.8921 -0.3855 -0.2355
vn 0.8808 0.4118 -0.2337
vn 0.7674 -0.3853 -0.5126
vn 0.7578 0.4116 -0.5062
vn 0.7881 0.4119 -0.4574
vn 0.5067 0.4116 -0.7575
vn 0.5532 0.4119 -0.7241
vn 0.4643 -0.3855 -0.7974
vn 0.1801 -0.3853 -0.9051
vn 0.2338 0.4119 -0.8807
vn -0.1801 -0.3853 -0.9050
vn -0.1213 0.4118 -0.9032
vn -0.2356 -0.3855 -0.8921
vn -0.2337 0.4118 -0.8808
vn -0.5063 0.4117 -0.7577
vn -0.7672 -0.3853 -0.5127
vn -0.7243 0.4119 -0.5530
vn -0.7974 -0.3855 -0.4643
vn -0.8938 0.4117 -0.1777
vn -0.9051 -0.3853 0.1799
vn -0.9032 0.4119 0.1211
vn -0.8921 -0.3855 0.2355
vn -0.8808 0.4118 0.2337
vn -0.7674 -0.3853 0.5126
vn -0.7578 0.4116 0.5062
vn -0.7881 0.4119 0.4574
vn -0.5130 -0.3853 0.7671
vn -0.5067 0.4116 0.7575
vn -0.5532 0.4119 0.7241
vn -0.4643 -0.3855 0.7974
vn -0.1801 -0.3853 0.9051
vn -0.2338 0.4119 0.8807
vn 0.1801 -0.3853 0.9050
vn 0.1213 0.4118 0.9032
vn 0.2355 -0.3855 0.8921
vn 0.2337 0.4118 0.8808
vn 0.5129 -0.3853 0.7671
vn 0.5066 0.4117 0.7575
vn 0.4578 0.4118 0.7880
vn 0.7674 -0.3853 0.5125
vn 0.7578 0.4117 0.5062
vn 0.7245 0.4118 0.5528
vn 0.7974 -0.3855 0.4643
vn 0.9051 -0.3853 0.1798
vn 0.8939 0.4117 0.1776
vn 0.8808 0.4118 0.2336
vn 0.8861 0.4634 0.0000
vn 0.8808 0.4118 0.2338
vn 0.7243 0.4118 0.5530
vn 0.7577 0.4116 0.5064
vn 0.4842 0.8517 -0.2006
vn 0.7243 0.4118 -0.5530
vn 0.8938 0.4116 -0.1777
vn 0.2006 0.8517 -0.4842
vn 0.2338 0.4118 -0.8808
vn 0.1777 0.4116 -0.8939
vn 0.1777 0.4116 -0.8938
vn 0.6265 0.4635 -0.6266
vn 0.5530 0.4118 -0.7243
vn -0.2006 0.8517 -0.4842
vn -0.5064 0.4116 -0.7577
vn -0.5530 0.4118 -0.7243
vn -0.1777 0.4116 -0.8938
vn -0.4842 0.8517 -0.2006
vn -0.8808 0.4118 -0.2338
vn -0.8938 0.4116 -0.1777
vn -0.7243 0.4118 -0.5530
vn -0.4842 0.8517 0.2006
vn -0.7577 0.4116 0.5064
vn -0.7243 0.4118 0.5530
vn -0.8938 0.4116 0.1777
vn -0.2006 0.8517 0.4842
vn -0.2338 0.4118 0.8808
vn -0.1777 0.4116 0.8939
vn -0.1777 0.4116 0.8938
vn -0.5530 0.4118 0.7243
vn 0.2006 0.8517 0.4842
vn 0.5064 0.4116 0.7577
vn 0.5530 0.4118 0.7243
vn 0.1777 0.4116 0.8938
vn 0.0001 0.4635 -0.8861
vn -0.6266 0.4635 -0.6265
vn -0.6265 0.4635 0.6266
vn 0.6266 0.4635 0.6265
vn -0.2110 0.9545 -0.2109
vn 0.5833 -0.7754 -0.2417
vn 0.8921 -0.3855 -0.2356
vn 0.8921 -0.3855 0.2356
vn 0.4642 -0.3855 -0.7974
vn 0.7974 -0.3855 -0.4642
vn -0.2417 -0.7754 -0.5833
vn -0.2355 -0.3855 -0.8921
vn 0.2356 -0.3855 -0.8921
vn -0.7974 -0.3855 -0.4642
vn -0.4642 -0.3855 -0.7974
vn -0.5833 -0.7754 0.2417
vn -0.8921 -0.3855 0.2356
vn -0.8921 -0.3855 -0.2356
vn -0.4642 -0.3855 0.7974
vn -0.7974 -0.3855 0.4642
vn 0.2417 -0.7754 0.5833
vn 0.2356 -0.3855 0.8921
vn -0.2356 -0.3855 0.8921
vn 0.7974 -0.3855 0.4642
vn 0.4642 -0.3855 0.7974
vn 0.0000 -1.0000 -0.0001
vn -0.0000 -1.0000 -0.0000
vn -0.0001 -1.0000 -0.0000
vn -0.0000 -1.0000 0.0001
vn 0.0001 -1.0000 0.0000
usemtl white
s off
f 65//1 17//2 1//3
f 17//2 96//4 1//3
f 67//5 18//6 2//7
f 18//6 66//8 2//9
f 69//10 19//11 3//12
f 19//11 68//13 3//12
f 71//14 20//15 4//16
f 20//15 70//17 4//18
f 73//19 21//20 5//21
f 21//20 72//22 5//21
f 75//23 22//24 6//25
f 22//24 74//26 6//27
f 77//28 23//29 7//30
f 23//29 76//31 7//30
f 79//32 24//33 8//34
f 24//33 78//35 8//36
f 81//37 25//38 9//39
f 25//38 80//40 9//39
f 83//41 26//42 10//43
f 26//42 82//44 10//45
f 85//46 27//47 11//48
f 27//47 84//49 11//48
f 87//50 28//51 12//52
f 28//51 86//53 12//54
f 89//55 29//56 13//57
f 29//56 88//58 13//57
f 91//59 30//60 14//61
f 30//60 90//62 14//63
f 93//64 31//65 15//66
f 31//65 92//67 15//66
f 95//68 32//69 16//70
f 32//69 94//71 16//72
f 33//73 97//74 65//1
f 33//73 98//75 49//76
f 34//77 99//78 67//79
f 34//80 100//81 50//82
f 35//83 101//84 69//10
f 35//85 102//86 51//87
f 36//88 103//89 71//90
f 36//91 104//92 52//93
f 37//94 105//95 73//19
f 37//96 106//97 53//98
f 38//99 107//100 75//101
f 38//102 108//103 54//104
f 39//105 109//106 77//28
f 39//107 110//108 55//109
f 40//110 111//111 79//112
f 40//113 112//114 56//115
f 41//116 113//117 81//37
f 41//116 114//118 57//119
f 42//120 115//121 83//122
f 42//123 116//124 58//125
f 43//126 117//127 85//46
f 43//126 118//128 59//129
f 44//130 119//131 87//132
f 44//133 120//134 60//135
f 45//136 121//137 89//55
f 45//138 122//139 61//140
f 46//141 123//142 91//143
f 46//144 124//145 62//146
f 47//147 125//148 93//64
f 47//149 126//150 63//151
f 48//152 127//153 95//154
f 48//155 128//156 64//157
f 64//158 128//159 136//160
f 126//161 32//69 136//162
f 100//163 19//164 129//165
f 49//166 98//75 129//165
f 104//167 21//168 130//169
f 51//170 102//171 130//169
f 108//172 23//173 131//174
f 53//175 106//176 131//174
f 112//177 25//178 132//179
f 55//180 110//181 132//179
f 116//182 27//183 133//184
f 57//185 114//118 133//184
f 120//186 29//187 134//188
f 59//189 118//128 134//188
f 124//190 31//191 135//192
f 61//193 122//194 135//192
f 137//195 129//165 138//196
f 138//196 19//197 130//169
f 138//196 130//169 139//198
f 139//198 21//20 131//174
f 139//198 131//174 140//199
f 140//199 23//200 132//179
f 140//199 132//179 141//201
f 141//201 25//38 133//184
f 141//201 133//184 142//202
f 142//202 27//203 134//188
f 142//202 134//188 143//204
f 143//204 29//56 135//192
f 143//204 135//192 144//205
f 144//205 31//206 136//160
f 144//205 136//160 137//195
f 17//207 137//195 136//160
f 140//199 142//202 144//205
f 33//73 65//1 145//208
f 95//154 16//72 152//209
f 35//83 69//10 146//210
f 67//79 2//7 145//208
f 37//94 73//19 147//211
f 71//90 4//18 146//212
f 39//105 77//28 148//213
f 75//101 6//25 147//211
f 41//116 81//37 149//214
f 79//112 8//36 148//215
f 43//126 85//46 150//216
f 83//122 10//43 149//214
f 45//136 89//55 151//217
f 87//132 12//54 150//218
f 47//147 93//64 152//219
f 91//143 14//61 151//217
f 152//219 145//220 1//3
f 145//208 146//221 3//12
f 146//210 147//222 5//21
f 147//211 148//223 7//30
f 148//213 149//224 9//39
f 149//214 150//225 11//48
f 150//216 151//226 13//57
f 151//217 152//227 15//66
f 65//1 97//74 17//2
f 17//2 128//159 96//4
f 67//228 99//229 18//6
f 18//6 98//230 66//8
f 69//10 101//84 19//11
f 19//11 100//163 68//13
f 71//14 103//231 20//15
f 20//15 102//232 70//233
f 73//19 105//95 21//20
f 21//20 104//167 72//22
f 75//234 107//235 22//24
f 22//24 106//236 74//26
f 77//28 109//106 23//29
f 23//29 108//172 76//31
f 79//32 111//237 24//33
f 24//33 110//238 78//239
f 81//37 113//117 25//38
f 25//38 112//177 80//40
f 83//240 115//241 26//42
f 26//42 114//242 82//44
f 85//46 117//127 27//47
f 27//47 116//182 84//49
f 87//50 119//243 28//51
f 28//51 118//244 86//245
f 89//55 121//137 29//56
f 29//56 120//186 88//58
f 91//246 123//247 30//60
f 30//60 122//248 90//62
f 93//64 125//148 31//206
f 31//65 124//190 92//67
f 95//68 127//249 32//69
f 32//69 126//250 94//251
f 33//73 49//252 97//74
f 33//73 66//253 98//254
f 34//255 50//256 99//257
f 34//77 68//13 100//163
f 35//85 51//258 101//259
f 35//83 70//260 102//171
f 36//261 52//93 103//262
f 36//88 72//22 104//167
f 37//263 53//98 105//264
f 37//94 74//265 106//266
f 38//99 54//267 107//100
f 38//99 76//31 108//172
f 39//268 55//180 109//269
f 39//105 78//270 110//181
f 40//110 56//271 111//111
f 40//110 80//40 112//177
f 41//272 57//185 113//273
f 41//116 82//274 114//275
f 42//276 58//277 115//278
f 42//120 84//49 116//182
f 43//279 59//280 117//281
f 43//126 86//282 118//128
f 44//283 60//135 119//284
f 44//130 88//58 120//186
f 45//285 61//140 121//286
f 45//136 90//287 122//288
f 46//289 62//290 123//291
f 46//141 92//67 124//190
f 47//292 63//293 125//294
f 47//147 94//295 126//161
f 48//296 64//297 127//298
f 48//152 96//4 128//159
f 128//159 17//299 136//160
f 136//162 32//69 127//300
f 127//300 64//157 136//160
f 136//160 31//191 125//148
f 125//301 63//302 136//160
f 63//302 126//161 136//160
f 129//303 18//6 99//78
f 99//78 50//82 129//165
f 50//82 100//304 129//165
f 98//75 18//6 129//303
f 129//165 17//299 97//74
f 97//74 49//305 129//165
f 130//306 20//15 103//307
f 103//307 52//308 130//169
f 52//309 104//167 130//169
f 102//171 20//15 130//306
f 130//169 19//310 101//84
f 101//311 51//170 130//169
f 131//312 22//24 107//100
f 107//100 54//313 131//174
f 54//313 108//314 131//174
f 106//176 22//24 131//312
f 131//174 21//168 105//95
f 105//95 53//315 131//174
f 132//316 24//33 111//317
f 111//317 56//115 132//179
f 56//318 112//177 132//179
f 110//181 24//33 132//316
f 132//179 23//173 109//106
f 109//319 55//180 132//179
f 133//320 26//42 115//121
f 115//121 58//321 133//184
f 58//321 116//322 133//184
f 114//118 26//42 133//320
f 133//184 25//178 113//117
f 113//117 57//323 133//184
f 134//324 28//51 119//325
f 119//325 60//326 134//188
f 60//327 120//186 134//188
f 118//128 28//51 134//324
f 134//188 27//183 117//127
f 117//328 59//189 134//188
f 135//329 30//60 123//142
f 123//142 62//330 135//192
f 62//330 124//331 135//192
f 122//194 30//60 135//329
f 135//192 29//187 121//137
f 121//137 61//332 135//192
f 138//196 129//165 19//310
f 139//198 130//169 21//333
f 140//199 131//174 23//334
f 141//201 132//179 25//38
f 142//202 133//184 27//335
f 143//204 134//188 29//56
f 144//205 135//192 31//336
f 17//2 129//165 137//195
f 144//205 137//195 140//337
f 137//195 138//196 140//199
f 138//196 139//198 140//199
f 140//199 141//201 142//202
f 142//202 143//204 144//205
f 65//1 1//3 145//208
f 145//338 2//7 66//253
f 66//339 33//73 145//208
f 152//227 1//3 96//4
f 96//4 48//152 152//227
f 48//152 95//340 152//227
f 69//10 3//12 146//221
f 146//221 4//18 70//260
f 70//341 35//83 146//221
f 145//208 3//12 68//13
f 68//13 34//77 145//220
f 34//77 67//342 145//208
f 73//19 5//21 147//211
f 147//343 6//25 74//344
f 74//265 37//94 147//211
f 146//221 5//21 72//22
f 72//22 36//88 146//221
f 36//88 71//345 146//221
f 77//28 7//30 148//223
f 148//223 8//36 78//270
f 78//346 39//105 148//223
f 147//211 7//30 76//31
f 76//31 38//99 147//222
f 38//99 75//347 147//211
f 81//37 9//39 149//214
f 149//348 10//43 82//274
f 82//349 41//116 149//214
f 148//223 9//39 80//40
f 80//40 40//110 148//223
f 40//110 79//350 148//223
f 85//46 11//48 150//225
f 150//225 12//54 86//282
f 86//351 43//126 150//225
f 149//214 11//48 84//49
f 84//49 42//120 149//224
f 42//120 83//352 149//214
f 89//55 13//57 151//217
f 151//353 14//61 90//287
f 90//354 45//136 151//217
f 150//225 13//57 88//58
f 88//58 44//130 150//225
f 44//130 87//355 150//225
f 93//64 15//66 152//227
f 152//227 16//72 94//295
f 94//356 47//147 152//227
f 151//217 15//66 92//67
f 92//67 46//141 151//226
f 46//141 91//357 151//217
f 152//219 153//358 145//220
f 145//208 153//359 146//221
f 146//210 153//360 147//222
f 147//211 153//359 148//223
f 148//213 153//361 149//224
f 149//214 153//359 150//225
f 150//216 153//362 151//226
f 151//217 153//359 152//227
